<svg xmlns="http://www.w3.org/2000/svg" viewBox="0 0 1067 1067" width="1067" height="1067">
	<style>
		tspan { white-space:pre }
		.shp0 { fill: #3b4269 } 
	</style>
	<g id="Page 1">
		<path id="Path 1" class="shp0" d="M925.3 607.59L718.35 423.52C707.06 413.48 689.77 414.49 679.74 425.77C669.7 437.06 670.71 454.35 682 464.39L865.97 628.03L681.99 791.66C670.71 801.7 669.69 818.99 679.73 830.27C685.14 836.35 692.64 839.45 700.18 839.45C706.64 839.45 713.14 837.17 718.35 832.53L925.3 648.46C931.14 643.27 934.47 635.83 934.47 628.03C934.47 620.22 931.13 612.78 925.3 607.59ZM386.93 425.77C376.89 414.49 359.61 413.47 348.32 423.52L141.37 607.59C135.53 612.78 132.19 620.21 132.19 628.02C132.19 635.83 135.53 643.27 141.37 648.46L348.32 832.53C353.53 837.17 360.02 839.45 366.49 839.45C374.03 839.45 381.53 836.35 386.93 830.27C396.97 818.98 395.96 801.7 384.68 791.66L200.7 628.02L384.67 464.39C395.96 454.35 396.97 437.06 386.93 425.77ZM598.7 409.94C584.26 405.57 568.97 413.73 564.59 428.19L449.72 807.45C445.34 821.91 453.51 837.18 467.97 841.56C470.61 842.35 473.28 842.74 475.91 842.74C487.64 842.74 498.49 835.12 502.07 823.31L616.95 444.05C621.32 429.59 613.15 414.32 598.7 409.94ZM54.7 219.14L1011.96 219.14L1011.96 1012.3L54.7 1012.3L54.7 219.14ZM54.7 55.03L164.1 55.03L164.1 164.44L54.7 164.44L54.7 55.03ZM218.8 55.03L847.86 55.03L847.86 164.44L218.8 164.44L218.8 55.03ZM1011.96 164.44L902.56 164.44L902.56 55.03L1011.96 55.03L1011.96 164.44ZM1039.32 0.33L27.35 0.33C12.24 0.33 0 12.58 0 27.68L0 1039.65C0 1054.75 12.24 1067 27.35 1067L1039.32 1067C1054.42 1067 1066.67 1054.75 1066.67 1039.65L1066.67 27.68C1066.67 12.58 1054.42 0.33 1039.32 0.33Z" />
	</g>
</svg>