<svg xmlns="http://www.w3.org/2000/svg" xmlns:xlink="http://www.w3.org/1999/xlink" width="42" height="42" viewBox="0 0 42 42"><defs><path id="9b4ma" d="M725 3812a20 20 0 1 1-40 0 20 20 0 0 1 40 0zm-15.98-6.34H697.5c-.8 0-1.44.67-1.44 1.48 0 .82.64 1.48 1.44 1.48h11.53l-.15.16a1.51 1.51 0 0 0-.02 2.1 1.42 1.42 0 0 0 2.03.02l2.67-2.66a1.48 1.48 0 0 0 .4-.65c.02-.11 0-.23.01-.34h-.04v-.01c0-.03.04-.06.04-.08a1.46 1.46 0 0 0-.35-1h.02c-.01-.01-.03-.03-.03-.05h-.01-.01c-.02 0-.02-.02-.03-.02l-2.66-2.67a1.42 1.42 0 0 0-2.04.03 1.5 1.5 0 0 0 .02 2.08zm-8 9.7l.15-.15c.57-.57.58-1.5.03-2.09a1.41 1.41 0 0 0-2.04-.02l-2.66 2.66-.04.05a1.56 1.56 0 0 0-.46 1.03v.05c0 .13.05.26.08.37h.02c.07.23.19.44.35.61l.05.05 2.66 2.66a1.42 1.42 0 0 0 2.04-.02c.55-.59.54-1.53-.03-2.1l-.14-.15h11.53c.8 0 1.44-.66 1.44-1.48s-.64-1.48-1.44-1.48z"/></defs><g><g transform="translate(-684 -3791)"><use fill="#dab81a" xlink:href="#9b4ma"/></g></g></svg>