<svg xmlns="http://www.w3.org/2000/svg" viewBox="0 0 42 42" width="42" height="42">
	<style>
		tspan { white-space:pre }
		.shp0 { fill: #3cd2a0 } 
		.shp1 { fill: #ffffff } 
	</style>
	<g id="Page 1">
		<path id="Path 1" class="shp0" d="M21.21,0.28c-11.31,0 -20.51,9.2 -20.51,20.51c0,3.58 0.94,7.09 2.71,10.19l-3.37,10.1c-0.08,0.25 -0.02,0.51 0.15,0.7c0.14,0.14 0.32,0.22 0.51,0.22c0.06,0 0.12,-0.01 0.18,-0.02l11.03,-2.9c2.87,1.46 6.08,2.23 9.3,2.23c11.31,0 20.51,-9.2 20.51,-20.51c0,-11.31 -9.2,-20.51 -20.51,-20.51z" />
		<path id="Path 2" class="shp1" d="M11.44,18.06c-1.5,0 -2.72,1.22 -2.72,2.72c0,1.5 1.22,2.72 2.72,2.72c1.5,0 2.72,-1.22 2.72,-2.72c0,-1.5 -1.22,-2.72 -2.72,-2.72zM21.22,18.06c-1.5,0 -2.71,1.22 -2.71,2.72c0,1.5 1.21,2.72 2.71,2.72c1.5,0 2.72,-1.22 2.72,-2.72c0,-1.5 -1.22,-2.72 -2.72,-2.72zM31,18.06c-1.5,0 -2.71,1.22 -2.71,2.72c0,1.5 1.21,2.72 2.71,2.72c1.5,0 2.72,-1.22 2.72,-2.72c0,-1.5 -1.21,-2.72 -2.72,-2.72z" />
	</g>
</svg>