<svg xmlns="http://www.w3.org/2000/svg" viewBox="0 0 450 500" width="450" height="500">
	<defs>
		<linearGradient id="grd1" gradientUnits="userSpaceOnUse"  x1="-3.681" y1="261.986" x2="453.689" y2="238.016">
			<stop offset="0" stop-color="#8200ff"  />
			<stop offset="1" stop-color="#00bcc3"  />
		</linearGradient>
	</defs>
	<style>
		tspan { white-space:pre }
		.shp0 { fill: url(#grd1) } 
	</style>
	<g id="Page 1">
		<path id="Path 1" class="shp0" d="M225 0C208.91 0 192.82 4.22 178.46 12.67L45.26 91.02C17.22 107.52 0 137.62 0 170.15L0 329.85C0 362.38 17.22 392.48 45.26 408.98L178.46 487.32C192.7 495.7 208.64 499.93 224.6 500L225.41 500C241.36 499.93 257.31 495.7 271.55 487.32L404.75 408.98C432.79 392.48 450.01 362.38 450.01 329.85L450.01 170.15C450.01 137.62 432.79 107.52 404.75 91.02L271.55 12.67C257.19 4.22 241.1 0 225 0ZM197.5 201.2L85.35 137.03C82.38 135.32 81.34 131.54 83.04 128.56C83.6 127.6 84.38 126.86 85.28 126.33L85.28 126.3L179.68 71.76C220.75 49.46 231.95 49.52 275.72 74.87L348.23 116.66C353.38 119.61 355.9 122.03 358.59 126.64C362.95 134.14 362.68 143.07 358.66 150.11C356.68 153.56 353.81 156.55 350.13 158.69L277.05 201.25C266.02 207.68 252.72 210.89 238.89 210.89C225.03 210.89 210.64 207.65 197.5 201.2ZM401.15 189.64C401.71 190.61 401.95 191.65 401.95 192.69L401.98 192.7L401.86 301.43C400.41 347.99 394.7 357.04 350.9 381.98L278.22 423.91C273.1 426.86 269.75 427.81 264.43 427.82C255.79 427.81 248.24 423.09 244.2 416.09C242.22 412.66 240.76 408.68 240.76 404.44L240.76 320.15C240.78 294.67 256.89 267.81 281.16 251.7L392.71 187.38L392.71 187.38C395.67 185.68 399.44 186.68 401.15 189.64ZM91.49 377.38C54.28 354.35 48.23 344.84 48.03 300.61L48.03 212.38C48.03 206.58 48.87 203.27 51.47 198.75C55.7 191.42 63.41 187.31 71.33 187.31C75.22 187.31 79.15 188.3 82.75 190.38L154.29 231.72C175.91 244.21 191.03 270.7 192.83 299.21L192.82 425.46C192.81 428.81 190.11 431.52 186.76 431.52C185.67 431.52 184.67 431.22 183.78 430.71L183.76 430.73L91.49 377.38Z" />
	</g>
</svg>