<svg xmlns="http://www.w3.org/2000/svg" viewBox="0 0 42 42" width="42" height="42">
	<style>
		tspan { white-space:pre }
		.shp0 { fill: #87bb16 } 
		.shp1 { fill: #ffffff } 
	</style>
	<g id="Page 1">
		<path id="Path 1" class="shp0" d="M21.21,0.28c-11.31,0 -20.51,9.2 -20.51,20.51c0,3.58 0.94,7.09 2.71,10.18l-3.37,10.1c-0.08,0.25 -0.02,0.51 0.15,0.7c0.14,0.14 0.32,0.22 0.51,0.22c0.06,0 0.12,-0.01 0.18,-0.02l11.03,-2.9c2.87,1.46 6.08,2.23 9.3,2.23c11.31,0 20.51,-9.2 20.51,-20.51c0,-11.31 -9.2,-20.51 -20.51,-20.51z" />
		<path id="Path 2" class="shp1" d="M26.21 26.53C26.21 26.97 25.83 27.33 25.37 27.33L17.13 27.33C16.66 27.33 16.29 26.97 16.29 26.53L16.29 10.95C16.29 10.51 16.66 10.15 17.13 10.15L25.37 10.15C25.83 10.15 26.21 10.51 26.21 10.95L26.21 26.53ZM21.25 31.53C20.43 31.53 19.77 30.86 19.77 30.05C19.77 29.23 20.43 28.57 21.25 28.57C22.06 28.57 22.73 29.23 22.73 30.05C22.73 30.86 22.06 31.53 21.25 31.53ZM25.99 8.43L16.51 8.43C15.06 8.43 13.89 9.6 13.89 11.04L13.89 29.79C13.89 31.23 15.06 32.4 16.51 32.4L25.99 32.4C27.43 32.4 28.6 31.23 28.6 29.79L28.6 11.04C28.6 9.6 27.43 8.43 25.99 8.43Z" />
	</g>
</svg>