<svg xmlns="http://www.w3.org/2000/svg" xmlns:xlink="http://www.w3.org/1999/xlink" width="76" height="76" viewBox="0 0 76 76"><defs><path id="feg7a" d="M364.86 3136a36.93 36.93 0 0 1 36.86 37c0 20.43-16.5 37-36.86 37a36.93 36.93 0 0 1-36.86-37c0-20.43 16.5-37 36.86-37z"/><path id="feg7b" d="M383.95 3164.3l-.34 2.46-.38 2.42-.08.48c-.4 2.3-.74 4.19-1.1 5.91a70.2 70.2 0 0 1-1.51 6.1c-.36 1.2-.71 2.17-1.1 3.1-.23.57-.48 1.08-.74 1.56-.27.48-.59 1.02-1.09 1.56-.22.25-.5.49-.8.68-.24.15-.62.34-1.08.4-.37.06-.78.01-1.15-.13-.32-.12-.63-.3-.94-.53a6.87 6.87 0 0 1-1.28-1.43c-.38-.54-.67-1.09-.9-1.5a30.82 30.82 0 0 1-1.37-3c-.43-1.04-.83-2.1-1.16-3l-.64-1.75c-.53-1.42-1.02-2.77-1.54-4.08-.44-1.1-.85-1.92-1.19-2.63l-.15-.29c-.03-.03-.04-.06-.06-.1l-.07-.1c-.89-1.35-1.96-1.2-2.78.93-.16.42-.34.83-.5 1.29l-.48 1.35a41.8 41.8 0 0 1-1.1 2.96 19.62 19.62 0 0 1-1.41 2.8 9.45 9.45 0 0 1-2.04 2.42c-.47.37-.94.62-1.41.78-.5.17-1.04.2-1.55.12a4.01 4.01 0 0 1-1.4-.54 6.4 6.4 0 0 1-1.15-.9c-.62-.59-1.17-1.28-1.73-2.16a24.5 24.5 0 0 1-1.3-2.32 45.49 45.49 0 0 1-1.95-4.63 84.3 84.3 0 0 1-2.42-8.03l-.05-.24c-.03-.12.03-.21.09-.28.07-.08.17-.1.27-.1l.13.02c.11.05.2.13.23.25.77 2.09 1.63 4.55 2.96 7.41a53.81 53.81 0 0 0 2.16 4.17c.44.73.87 1.38 1.3 1.95a9.63 9.63 0 0 0 1.48 1.61c.57.48 1.15.74 1.64.75.5 0 .92-.18 1.4-.6.55-.5 1-1.25 1.3-1.78.38-.7.75-1.5 1.08-2.38.3-.8.6-1.68.9-2.68l.48-1.53c.18-.5.37-1.02.58-1.53.25-.58.47-1.1.72-1.56v-.02l.01-.01a8.7 8.7 0 0 1 1.02-1.52c.22-.25.46-.5.78-.73.34-.25.7-.4 1.05-.49.38-.08.81-.07 1.19.05.33.1.65.28.98.51.6.47 1 .98 1.32 1.43.3.44.59.92.9 1.5.56 1.08 1 2.12 1.37 3.02l.18.42c.57 1.42 1.08 2.84 1.58 4.22l.48 1.33a53.66 53.66 0 0 0 2.27 5.54c.23.45.45.81.64 1.11 1.07 1.7 1.79.19 2-.16.21-.34.4-.73.6-1.15.33-.75.68-1.64 1.01-2.66a79.22 79.22 0 0 0 1.62-5.68c.48-1.89.92-3.8 1.33-5.7l.08-.4c.18-.8.36-1.61.5-2.38l.46-2.3.05-.2c.13-.41.48-.71.9-.71.52 0 .94.44.95.94v.02z"/></defs><g><g transform="translate(-327 -3135)"><g><use fill="#2cd3b8" xlink:href="#feg7a"/></g><g><use fill="#fff" xlink:href="#feg7b"/></g></g></g></svg>