<svg xmlns="http://www.w3.org/2000/svg" xmlns:xlink="http://www.w3.org/1999/xlink" width="76" height="76" viewBox="0 0 76 76"><defs><path id="8qjpa" d="M364.86 2824a36.93 36.93 0 0 1 36.86 37c0 20.43-16.5 37-36.86 37a36.93 36.93 0 0 1-36.86-37c0-20.43 16.5-37 36.86-37z"/><path id="8qjpb" d="M369.27 2861.5c3.5 0 6.37-2.81 6.37-6.25a6.33 6.33 0 0 0-6.37-6.25 6.33 6.33 0 0 0-6.36 6.25 6.33 6.33 0 0 0 6.36 6.25zm-14.32-3.13v-4.68h-3.18v4.68H347v3.13h4.77v4.69h3.18v-4.69h4.78v-3.13zm14.32 6.25c-4.3 0-12.72 2.04-12.72 6.25v3.13H382v-3.13c0-4.21-8.43-6.25-12.73-6.25z"/></defs><g><g transform="translate(-327 -2823)"><g><use fill="#2cd3b8" xlink:href="#8qjpa"/></g><g><use fill="#fff" xlink:href="#8qjpb"/></g></g></g></svg>