<svg xmlns="http://www.w3.org/2000/svg" xmlns:xlink="http://www.w3.org/1999/xlink" width="76" height="76" viewBox="0 0 76 76"><defs><path id="8afla" d="M364.86 3240a36.93 36.93 0 0 1 36.86 37c0 20.43-16.5 37-36.86 37a36.93 36.93 0 0 1-36.86-37c0-20.43 16.5-37 36.86-37z"/><path id="8aflb" d="M381 3276.05v6.28c0 .87-.7 1.58-1.55 1.58h-.61v-9.44h.61c.86 0 1.55.7 1.55 1.58zm-29.75-1.58v9.44h-.61c-.9 0-1.64-.75-1.64-1.67v-6.1c0-.93.73-1.68 1.64-1.68zm26.17 11.09h.95a5.31 5.31 0 0 1-4.9 5.27 9.46 9.46 0 0 1-8.38 5.17 9.54 9.54 0 0 1-9.3-7.8h-2.49a.82.82 0 0 1-.8-.83v-11.57a11.04 11.04 0 0 1 .52-3.36v-1.18c0-6.76 5.4-12.26 12.02-12.26 6.64 0 12.03 5.5 12.03 12.26v1.76a11.11 11.11 0 0 1 .35 2.78zm-5.28.78v-7.33c-5.4-.28-8.8-2.4-10.46-3.75a14.58 14.58 0 0 1-3.64 3.23v7.85a7.13 7.13 0 0 0 7.05 7.2c2.22 0 4.2-1.06 5.5-2.7h-4.65c-.67 0-1.21-.55-1.21-1.23 0-.68.54-1.24 1.2-1.24h5.92a7.3 7.3 0 0 0 .29-2.03zm1.92-18.46a9.63 9.63 0 0 0-9.02-6.41 9.63 9.63 0 0 0-8.92 6.18 10.49 10.49 0 0 1 7.02-2.71h3.64a10.5 10.5 0 0 1 7.28 2.94zm-10.27 14.17c0 .68-.54 1.23-1.21 1.23h-1.94c-.67 0-1.2-.55-1.2-1.23 0-.68.53-1.24 1.2-1.24h1.94c.67 0 1.21.56 1.21 1.24zm6.78 0c0 .68-.55 1.23-1.21 1.23h-1.94c-.67 0-1.21-.55-1.21-1.23 0-.68.54-1.24 1.21-1.24h1.94c.66 0 1.2.56 1.2 1.24z"/></defs><g><g transform="translate(-327 -3239)"><g><use fill="#2cd3b8" xlink:href="#8afla"/></g><g><use fill="#fff" xlink:href="#8aflb"/></g></g></g></svg>