<svg xmlns="http://www.w3.org/2000/svg" viewBox="0 0 1067 1058" width="1067" height="1058">
	<style>
		tspan { white-space:pre }
		.shp0 { fill: #3b4269 } 
	</style>
	<g id="Page 1">
		<path id="Path 1" class="shp0" d="M988.36 346.71L957.94 377.13L856.54 275.73L886.95 245.31C900.5 231.76 918.5 224.3 937.66 224.3C956.81 224.3 974.82 231.76 988.36 245.31C1001.9 258.85 1009.36 276.86 1009.36 296.01C1009.36 315.16 1001.9 333.17 988.36 346.71ZM711.3 1000.64L57.36 1000.64L57.36 286.47L258.36 286.47C274.2 286.47 286.81 273.63 286.81 257.78L286.81 57.02L711.3 57.02L711.3 339.6L389.95 661.07C389.81 661.2 389.75 661.36 389.62 661.5C385.95 665.07 383.26 669.6 381.91 674.72L331.22 867.39C328.63 877.25 331.47 887.76 338.69 894.97C344.14 900.42 351.46 903.37 358.98 903.37C361.41 903.37 363.86 903.06 366.28 902.43L558.94 851.73C564.06 850.38 568.59 847.65 572.17 843.99C572.31 843.85 572.35 843.73 572.49 843.59L711.3 704.66L711.3 1000.64ZM229.45 97.58L229.45 229.1L98.15 229.1L229.45 97.58ZM552.32 782.75L450.91 681.35L815.97 316.29L917.37 417.7L552.32 782.75ZM496.05 808.96L399.22 834.44L424.7 737.62L496.05 808.96ZM1028.92 204.74C1004.54 180.37 972.13 166.94 937.66 166.94C903.18 166.94 870.65 180.37 846.28 204.74L768.66 282.24L768.66 28.33C768.66 12.49 756.05 -0.35 740.21 -0.35L258.36 -0.35C250.76 -0.35 243.46 2.67 238.08 8.05L8.51 237.5C3.14 242.88 0 250.18 0 257.78L0 1029.32C0 1045.16 13.07 1058 28.91 1058L740.21 1058C756.05 1058 768.66 1045.16 768.66 1029.32L768.66 647.3L1028.8 387.27C1053.18 362.89 1066.67 330.48 1066.67 296.01C1066.67 261.53 1053.3 229.12 1028.92 204.74ZM244.02 845.76L160.85 845.76C145.01 845.76 132.16 858.6 132.16 874.44C132.16 890.28 145.01 903.12 160.85 903.12L244.02 903.12C259.86 903.12 272.7 890.28 272.7 874.44C272.7 858.6 259.86 845.76 244.02 845.76ZM258.36 731.03L160.85 731.03C145.01 731.03 132.16 743.87 132.16 759.71C132.16 775.55 145.01 788.39 160.85 788.39L258.36 788.39C274.21 788.39 287.05 775.55 287.05 759.71C287.05 743.87 274.21 731.03 258.36 731.03ZM287.05 616.3L160.85 616.3C145.01 616.3 132.16 629.14 132.16 644.99C132.16 660.83 145.01 673.67 160.85 673.67L287.05 673.67C302.89 673.67 315.73 660.83 315.73 644.99C315.73 629.14 302.89 616.3 287.05 616.3ZM160.85 558.94L370.22 558.94C386.06 558.94 398.9 546.1 398.9 530.26C398.9 514.42 386.06 501.58 370.22 501.58L160.85 501.58C145 501.58 132.16 514.42 132.16 530.26C132.16 546.1 145 558.94 160.85 558.94ZM160.85 444.21L487.81 444.21C503.66 444.21 516.5 431.37 516.5 415.53C516.5 399.69 503.66 386.85 487.81 386.85L160.85 386.85C145 386.85 132.16 399.69 132.16 415.53C132.16 431.37 145 444.21 160.85 444.21ZM373.09 329.49L619.75 329.49C635.59 329.49 648.43 316.65 648.43 300.81C648.43 284.97 635.59 272.13 619.75 272.13L373.09 272.13C357.25 272.13 344.41 284.97 344.41 300.81C344.41 316.65 357.25 329.49 373.09 329.49ZM373.09 214.76L619.75 214.76C635.59 214.76 648.43 201.92 648.43 186.08C648.43 170.24 635.59 157.4 619.75 157.4L373.09 157.4C357.25 157.4 344.41 170.24 344.41 186.08C344.41 201.92 357.25 214.76 373.09 214.76Z" />
	</g>
</svg>