<svg xmlns="http://www.w3.org/2000/svg" viewBox="0 0 143 143" width="143" height="143">
	<style>
		tspan { white-space:pre }
		.shp0 { fill: #33aed1 } 
		.shp1 { fill: #ffffff } 
	</style>
	<g id="Page 1">
		<path id="Path 1" class="shp0" d="M71.72,-0.45c-39.61,0 -71.72,32.11 -71.72,71.72c0,39.61 32.11,71.72 71.72,71.72c39.61,0 71.72,-32.11 71.72,-71.72c0,-39.61 -32.11,-71.72 -71.72,-71.72z" />
		<path id="Path 2" class="shp1" d="M89.06 73.28C84.93 73.28 81.58 69.94 81.58 65.79C81.58 61.66 84.93 58.31 89.06 58.31C93.2 58.31 96.55 61.66 96.55 65.79C96.55 69.94 93.2 73.28 89.06 73.28ZM81.94 93.11L61.54 93.11C58.17 93.11 55.43 90.38 55.43 87C55.43 83.62 58.17 80.9 61.54 80.9L81.94 80.9C85.31 80.9 88.04 83.62 88.04 87C88.04 90.38 85.31 93.11 81.94 93.11ZM46.92 65.79C46.92 61.66 50.27 58.31 54.41 58.31C58.54 58.31 61.89 61.66 61.89 65.79C61.89 69.94 58.54 73.28 54.41 73.28C50.27 73.28 46.92 69.94 46.92 65.79ZM108.53 61.5L105.77 61.5L105.77 57.62C105.77 51.38 100.65 46.34 94.4 46.34L75.83 46.34L75.83 37.05C78.28 35.63 79.91 33 79.91 29.97C79.91 25.45 76.26 21.8 71.74 21.8C67.23 21.8 63.54 25.45 63.54 29.97C63.54 33 65.17 35.63 67.61 37.05L67.61 46.34L49.08 46.34C42.83 46.34 37.8 51.38 37.8 57.62L37.8 61.5L34.95 61.5C31.43 61.5 28.55 64.41 28.55 67.92L28.55 81.69C28.55 85.21 31.43 88.09 34.95 88.09L37.8 88.09L37.8 91.99C37.8 98.25 42.83 103.25 49.08 103.25L54.38 103.25L54.38 109.21C54.38 112.74 57.26 115.59 60.77 115.59L82.69 115.59C86.22 115.59 89.06 112.74 89.06 109.21L89.06 103.25L94.4 103.25C100.65 103.25 105.77 98.25 105.77 91.99L105.77 88.09L108.53 88.09C112.04 88.09 114.89 85.21 114.89 81.69L114.89 67.92C114.89 64.41 112.04 61.5 108.53 61.5Z" />
	</g>
</svg>