<svg xmlns="http://www.w3.org/2000/svg" viewBox="0 0 1067 1067" width="1067" height="1067">
	<style>
		tspan { white-space:pre }
		.shp0 { fill: #5f97d1 } 
		.shp1 { fill: #ffffff } 
	</style>
	<g id="Page 1">
		<path id="Path 1" class="shp0" d="M0,533.67c0,294.55 238.78,533.33 533.33,533.33c294.55,0 533.33,-238.78 533.33,-533.33c0,-294.55 -238.78,-533.33 -533.33,-533.33c-294.55,0 -533.33,238.78 -533.33,533.33z" />
		<path id="Path 2" class="shp1" d="M183.79,326.34v414.21l202,-207.94zM681.89,533.45l200.99,207.11v-414.21zM461.3,580.59c18.66,19.43 44.44,30.41 71.38,30.41c26.94,0 52.72,-10.98 71.38,-30.41l262.22,-273.04h-667.2zM619.19,595.12c-22.5,23.43 -54.03,36.86 -86.51,36.86c-32.48,0 -64.01,-13.44 -86.51,-36.86l-44.48,-46.31l-202.62,210.97h667.2l-202.62,-210.97z" />
	</g>
</svg>