<svg xmlns="http://www.w3.org/2000/svg" xmlns:xlink="http://www.w3.org/1999/xlink" width="76" height="76" viewBox="0 0 76 76"><defs><path id="af0ha" d="M364.86 3032a36.93 36.93 0 0 1 36.86 37c0 20.43-16.5 37-36.86 37a36.93 36.93 0 0 1-36.86-37c0-20.43 16.5-37 36.86-37z"/><path id="af0hb" d="M382.88 3072.1a1 1 0 0 1-1.06.88h-.22c-1.59 0-3.07.97-3.68 2.43a3.99 3.99 0 0 0 1 4.5 1 1 0 0 1 .12 1.36 17.92 17.92 0 0 1-2.92 2.88 1 1 0 0 1-1.35-.11 4.15 4.15 0 0 0-4.46-1.02 4 4 0 0 0-2.47 3.84 1 1 0 0 1-.89 1.03 17.85 17.85 0 0 1-4.05-.01 1 1 0 0 1-.88-1.05 4 4 0 0 0-2.43-3.9 4.14 4.14 0 0 0-4.5 1 1 1 0 0 1-1.36.1 17.87 17.87 0 0 1-2.85-2.87 1 1 0 0 1 .11-1.36 4 4 0 0 0 1-4.45 3.95 3.95 0 0 0-3.7-2.46c-.51 0-1.12-.38-1.18-.89a18.05 18.05 0 0 1 .01-4.1.98.98 0 0 1 1.04-.88c1.76 0 3.3-.95 3.92-2.43a3.99 3.99 0 0 0-1-4.5 1 1 0 0 1-.12-1.36 17.9 17.9 0 0 1 2.92-2.88 1 1 0 0 1 1.35.12 4.16 4.16 0 0 0 4.46 1.01 4 4 0 0 0 2.46-3.84 1 1 0 0 1 .9-1.03c1.34-.15 2.7-.14 4.04.01a1 1 0 0 1 .89 1.05 4 4 0 0 0 2.43 3.91c1.49.62 3.42.18 4.49-1a1 1 0 0 1 1.37-.12c1.04.84 2 1.8 2.85 2.88a1 1 0 0 1-.11 1.36 4.01 4.01 0 0 0-1 4.45 4 4 0 0 0 3.72 2.47c.5 0 1.1.38 1.16.88.15 1.37.15 2.74-.01 4.1zm-12.3 6.64l-4.59-4.59a6.35 6.35 0 0 1-6.98-1.36 6.38 6.38 0 0 1-1.64-6.16.71.71 0 0 1 .67-.54c.13 0 .33.04.52.23l2.94 2.92a.48.48 0 0 0 .38.14h.04c.83-.08 1.84-.22 2.22-.35l.05-.05.05-.04c.12-.38.27-1.37.34-2.2l.01-.05c.01-.07.01-.25-.07-.33l-2.99-3.01a.7.7 0 0 1-.2-.7.72.72 0 0 1 .5-.5 6.38 6.38 0 0 1 8.04 6.14c0 .87-.18 1.71-.5 2.49l4.54 4.54a10.38 10.38 0 1 0-3.33 3.42z"/></defs><g><g transform="translate(-327 -3031)"><g><use fill="#2cd3b8" xlink:href="#af0ha"/></g><g><use fill="#fff" xlink:href="#af0hb"/></g></g></g></svg>