<svg xmlns="http://www.w3.org/2000/svg" xmlns:xlink="http://www.w3.org/1999/xlink" width="76" height="76" viewBox="0 0 76 76"><defs><path id="sk0ka" d="M364.86 3344a36.93 36.93 0 0 1 36.86 37c0 20.43-16.5 37-36.86 37a36.93 36.93 0 0 1-36.86-37c0-20.43 16.5-37 36.86-37z"/><path id="sk0kb" d="M370.82 3395.77c0 .68-.55 1.23-1.22 1.23h-9.2c-.67 0-1.22-.55-1.22-1.23 0-.68.55-1.23 1.22-1.23h3.38v-2.96h2.44v2.96h3.38c.67 0 1.22.55 1.22 1.23zm10.18-8.28v1.47c0 .54-.43.97-.96.97h-30.08a.97.97 0 0 1-.96-.97v-1.47zm0-18.52v16.88h-2.25a13.9 13.9 0 0 0-5.33-10.69l.78-1.07a.83.83 0 0 0-.18-1.15.81.81 0 0 0-1.13.18l-.81 1.11a13.58 13.58 0 0 0-7.08-1.98c-7.5 0-13.6 6.07-13.75 13.6H349v-16.88c0-.53.43-.97.96-.97h30.08c.53 0 .96.44.96.97zm-8.98 16.33h-4.12c-.18-.5-.5-.95-.9-1.3l2.43-3.34a7.03 7.03 0 0 1 2.46 4.3c.02.13.07.24.13.34zm-3.97-5.52l-2.55 3.52a3.08 3.08 0 0 0-3.4 2h-4.12c.06-.1.1-.21.13-.33a7.06 7.06 0 0 1 1.77-3.65l.02-.03a6.94 6.94 0 0 1 8.15-1.51zm5.31 5.52a.82.82 0 0 0 .14-.6 8.72 8.72 0 0 0-2.9-5.18l-.22-.17 2.08-2.86a12.25 12.25 0 0 1 4.64 8.8zm-16.72 0h-3.74c.16-2.38 1-4.57 2.31-6.39h.01l2.83 2.08a8.7 8.7 0 0 0-1.55 3.7c-.03.23.02.44.14.6zm7.55-11.38v3.55a8.57 8.57 0 0 0-5.05 2.29l-2.88-2.11a12.05 12.05 0 0 1 7.93-3.73zm6.92 1.64l-2.09 2.88c-1-.53-2.08-.86-3.2-.97v-3.55c1.92.13 3.72.71 5.3 1.64z"/></defs><g><g transform="translate(-327 -3343)"><g><use fill="#2cd3b8" xlink:href="#sk0ka"/></g><g><use fill="#fff" xlink:href="#sk0kb"/></g></g></g></svg>